<?xml version="1.0" standalone="no"?>
<!DOCTYPE svg PUBLIC "-//W3C//DTD SVG 20010904//EN"
 "http://www.w3.org/TR/2001/REC-SVG-20010904/DTD/svg10.dtd">
<svg version="1.0" xmlns="http://www.w3.org/2000/svg"
 width="512.000000pt" height="512.000000pt" viewBox="0 0 512.000000 512.000000"
 preserveAspectRatio="xMidYMid meet">
<metadata>
Created by potrace 1.14, written by Peter Selinger 2001-2017
</metadata>
<g transform="translate(0.000000,512.000000) scale(0.100000,-0.100000)"
fill="#000000" stroke="none">
<path d="M1078 5115 c-1 -1 -28 -6 -58 -9 -197 -24 -426 -126 -590 -265 -263
-222 -431 -568 -426 -881 1 -67 4 -82 21 -94 31 -24 63 -29 94 -16 37 15 48
44 55 145 19 260 125 486 310 662 125 120 253 196 411 246 88 27 124 34 235
43 41 3 87 10 102 16 55 21 61 110 10 140 -23 13 -152 24 -164 13z"/>
<path d="M3884 5109 c-22 -11 -44 -48 -44 -74 0 -29 23 -64 49 -74 14 -5 61
-12 103 -15 82 -6 87 -7 191 -31 430 -102 757 -517 766 -971 1 -76 44 -112
113 -98 44 9 61 60 54 159 -33 482 -351 895 -810 1051 -142 49 -374 78 -422
53z"/>
<path d="M1070 4769 c-19 -4 -48 -10 -65 -12 -55 -9 -177 -59 -249 -101 -77
-45 -217 -176 -263 -246 -92 -137 -136 -269 -149 -438 -5 -71 -5 -73 26 -103
26 -27 36 -31 66 -26 45 7 74 40 74 82 0 145 75 340 171 449 124 139 280 215
474 232 88 7 111 21 120 75 6 36 4 45 -19 68 -23 22 -35 26 -89 27 -34 0 -78
-3 -97 -7z"/>
<path d="M3900 4773 c-27 -10 -60 -46 -60 -65 0 -32 27 -86 47 -91 10 -3 52
-9 93 -12 355 -32 621 -319 629 -681 1 -41 31 -74 75 -81 30 -5 40 -1 66 25
29 30 30 33 26 104 -24 376 -279 686 -639 778 -83 21 -212 34 -237 23z"/>
<path d="M1058 4416 c-95 -28 -158 -65 -229 -136 -89 -89 -148 -232 -144 -348
2 -53 28 -82 78 -89 30 -4 41 0 62 23 14 15 26 40 27 58 9 186 134 320 318
341 65 7 88 19 100 51 15 39 12 61 -14 90 -30 36 -95 39 -198 10z"/>
<path d="M3893 4430 c-35 -14 -56 -55 -49 -94 8 -42 38 -63 102 -71 77 -9 117
-22 167 -56 91 -60 144 -152 152 -265 4 -51 15 -74 45 -89 40 -21 65 -19 95 8
33 28 38 73 19 164 -42 201 -201 361 -398 399 -53 10 -113 12 -133 4z"/>
<path d="M1167 3744 c-316 -51 -561 -332 -568 -652 -2 -72 -3 -75 -46 -125
-215 -251 -384 -703 -469 -1257 -3 -25 -8 -54 -10 -65 -7 -48 -24 -175 -29
-225 -4 -30 -8 -66 -10 -80 -2 -14 -7 -68 -10 -120 -4 -52 -9 -111 -11 -130
-2 -19 -6 -143 -8 -275 -4 -180 -1 -262 10 -327 36 -224 130 -385 264 -453
105 -54 313 -40 455 29 39 19 81 46 94 60 l24 26 34 -26 c52 -40 171 -91 248
-107 52 -11 150 -15 377 -16 336 -2 361 2 410 58 l24 27 616 -1 616 0 21 -27
c44 -56 75 -60 432 -55 178 2 335 6 348 10 103 28 178 61 247 108 l41 28 24
-25 c37 -39 158 -94 240 -109 41 -7 115 -12 164 -11 76 2 98 7 145 30 137 71
243 260 268 480 13 114 5 565 -13 709 -2 15 -6 61 -10 102 -3 41 -8 85 -10 97
-2 13 -6 49 -10 82 -4 32 -8 68 -10 80 -2 11 -6 43 -10 69 -4 27 -8 59 -11 70
-2 12 -6 38 -9 57 -4 30 -48 244 -59 290 -104 420 -253 746 -424 926 -15 16
-20 35 -21 85 -2 183 -68 337 -200 468 -117 117 -241 179 -396 199 -33 4 -190
7 -350 6 -314 -1 -322 -2 -374 -58 l-24 -26 -617 0 -617 0 -24 26 c-53 57 -59
58 -382 58 -180 1 -326 -4 -370 -10z"/>
</g>
</svg>
